<?xml version="1.0" encoding="UTF-8" standalone="no"?>
<svg
   width="1920"
   height="1920"
   viewBox="0 0 1920 1920"
   version="1.1"
   id="svg8"
   sodipodi:docname="getty-images-0lwm492K9V8-unsplash-2.svg"
   inkscape:version="1.4 (e7c3feb100, 2024-10-09)"
   xmlns:inkscape="http://www.inkscape.org/namespaces/inkscape"
   xmlns:sodipodi="http://sodipodi.sourceforge.net/DTD/sodipodi-0.dtd"
   xmlns="http://www.w3.org/2000/svg"
   xmlns:svg="http://www.w3.org/2000/svg">
  <defs
     id="defs8" />
  <sodipodi:namedview
     id="namedview8"
     pagecolor="#ffffff"
     bordercolor="#000000"
     borderopacity="0.25"
     inkscape:showpageshadow="2"
     inkscape:pageopacity="0.0"
     inkscape:pagecheckerboard="true"
     inkscape:deskcolor="#d1d1d1"
     inkscape:zoom="0.55811364"
     inkscape:cx="1139.5529"
     inkscape:cy="1173.5961"
     inkscape:window-width="2016"
     inkscape:window-height="1180"
     inkscape:window-x="0"
     inkscape:window-y="0"
     inkscape:window-maximized="1"
     inkscape:current-layer="svg8" />
  <path
     fill-rule="nonzero"
     fill="#1d1d1b"
     fill-opacity="1"
     d="m 1661.0202,1105.4376 c -4.6718,17.6719 -23.3203,51.0625 -95.9726,64.6289 -14.0078,0.1406 -27.8789,-0.1172 -41.75,-1.5469 -2.707,-0.07 -5.4102,-0.4414 -8.1094,-0.8125 l -8.0976,-0.9492 -8.1329,-0.7695 c -2.707,-0.2813 -5.3867,-0.8204 -8.0781,-1.211 -5.3906,-0.8086 -10.832,-1.4375 -16.2109,-2.4101 l -16.0781,-3.3477 c -21.3204,-5.0625 -42.3399,-11.6601 -62.8594,-19.7109 -18.9336,-7.3086 -37.5508,-15.6914 -55.4219,-25.4688 0.1602,-2.0703 0.3086,-4.0508 0.4492,-5.8711 0.2305,-2.9492 -0.01,-5.8515 -0.4492,-8.6914 22.6602,6.2422 45.6992,11.0703 68.9609,14.7813 26.3399,3.9492 52.961,6.3593 79.711,6.7109 13.3789,0.1289 26.7773,-0.09 40.1992,-1.0195 6.6797,-0.6602 13.3984,-1.1328 20.0508,-2.2305 6.6562,-1 13.2578,-2.3828 19.8476,-3.7617 13.1016,-3.25 26.0313,-7.2383 38.4297,-12.5781 10.7696,-4.6797 21.0625,-10.3907 30.6797,-16.9922 7.1719,3.75 13.6914,7.6523 19.3594,11.7109 3.0625,2.1992 4.4219,5.9414 3.4726,9.5391 z m -220.0312,68.5195 c -33.9102,-2.5898 -68.9414,-3.2383 -104.3086,-2.9297 1.1992,-22.539 2.4805,-41.6406 3.5195,-55.5781 17.0977,10.8281 35.0078,20.3398 53.418,28.8789 20.3125,9.1406 41.293,16.8906 62.793,23.1289 11.8281,3.4219 23.8672,6.3906 36.0586,8.543 -15.6993,0.01 -32.75,-0.6133 -51.4805,-2.043 z m -107.8008,327.6797 c 16.6094,71.6016 34.4024,120.8711 47.3906,156.8516 7.9102,21.8789 14.1602,39.1679 17.5313,54.0703 2.3789,10.5195 -2.7813,20.9101 -12.5625,25.25 -37.5195,16.6914 -114.4883,37.3398 -208.1797,-11.8907 -6.7969,-3.5781 -11.207,-10.25 -11.7891,-17.8398 -2.4687,-32.3711 -1.6797,-100.8906 31.3516,-196.0391 40.0195,-115.2695 47.2187,-342.8125 48.4805,-409.8007 0.1367,-7.9493 4.4101,-15.0704 11.1484,-18.6094 6.0195,-3.1602 14.2305,-5.9219 24.5195,-5.9219 8.7618,0 19.0196,2.0117 30.7188,7.4805 8.2734,3.8711 13.3711,12.5117 12.6719,21.5117 -4.8594,62.8477 -18.6211,277.0703 8.7187,394.9375 z m -184.75,178.5625 c -8.9297,3.1992 -17.7187,6.0273 -26.3789,8.5391 -4.4805,-0.7383 -8.9609,-1.961 -13.3398,-3.6797 -6.3516,-2.6992 -12.4688,-6.2422 -18.2813,-10.3399 -5.7773,-4.1601 -11.1992,-8.8906 -16.3398,-13.9609 -5.1094,-5.1016 -9.9688,-10.5078 -14.3203,-16.3399 3.5898,6.3399 7.7812,12.3594 12.2812,18.1485 4.5508,5.7617 9.4688,11.293 14.9297,16.3633 5.5,5.0195 11.5117,9.6093 18.1406,13.4687 0.3906,0.211 0.8086,0.3906 1.1992,0.6016 -52.6797,13.0586 -100.1289,13.8789 -140.81641,8.6094 1.06641,-1.9219 2.14454,-3.8008 3.19532,-5.75 0,0 -30.05078,-9.3008 -75.14844,-11.1211 -16.38281,-5.6602 -30.58203,-11.8711 -42.30078,-17.7188 -4.72266,-2.3633 -8.76563,-5.5117 -12.08985,-9.2109 37.20313,-33.1524 156.07033,-156.8711 103.01563,-344.9922 2.49609,-8.4688 4.98828,-17.0781 7.48437,-25.9883 8.42579,-30.0898 15.3086,-64.3203 20.92969,-100.9492 30.35937,7.0898 68.30077,9.3984 111.14067,9.3984 22.082,0 45.4922,-0.6211 69.8086,-1.5078 6.5508,44.0781 14.7734,84.8399 25.0703,119.4883 11.5117,38.7305 19.9297,74.6719 25.9805,107.6094 -1.0782,6 -2.211,11.8828 -3.3672,17.6914 -6.8125,-15.1602 -12.8633,-30.7422 -18.5,-46.4922 -7.0508,-19.7266 -13.1719,-39.8164 -19.0625,-59.9766 -5.8594,-20.1836 -11.1406,-40.5312 -16.168,-60.9609 -4.9922,-20.4297 -9.7031,-40.9414 -13.8906,-61.5703 3.289,20.789 7.1211,41.5 11.2305,62.1601 4.1601,20.6602 8.5585,41.2696 13.5585,61.7578 5.0391,20.4805 10.3204,40.9297 16.5704,61.1524 6.2695,20.1992 13.1406,40.2773 21.6484,59.8984 l 1.3828,-0.6484 c -3.6016,16.2187 -7.582,31.3984 -11.9922,45.1406 -13.9492,-30.4414 -26.2304,-61.7695 -37.3203,-93.5312 -12.8398,-37.0118 -24.457,-74.5118 -34.4883,-112.461 8.2696,38.3789 18.1485,76.4297 29.3086,114.1289 10.75,36.0821 22.9492,71.793 37.6016,106.7032 -4.211,12.5585 -7.8789,24.6601 -11.0508,36.2773 -4.9609,-8.2891 -9.3281,-17.207 -13.5,-26.1367 -5.5,-11.8828 -10.6406,-23.9805 -15.4687,-36.2227 -9.7227,-24.4687 -18.6211,-49.3203 -26.8907,-74.3789 6.5313,25.5781 13.711,51 21.7578,76.2188 4,12.6093 8.3321,25.1406 13.0821,37.5703 4.8086,12.4297 9.8281,24.7695 16.8906,36.7187 l 0.6172,-0.3984 c -3.5664,14.2695 -6.4492,27.7891 -8.668,40.4297 -10.332,-11.7383 -19.7187,-24.5 -28.2422,-37.8477 -10.8867,-17.1133 -20.6992,-35.0429 -29.0273,-53.6914 6.6406,19.3281 14.8594,38.1602 24.3086,56.418 8.7617,16.832 18.8789,33.082 30.8203,48.2422 -2.2109,14.7187 -3.6094,28.1601 -4.4102,40.2383 -4.8398,-4.0079 -9.6289,-8.0899 -14.2187,-12.4102 -6.332,-5.8281 -12.3008,-12.0273 -18.1211,-18.4102 -5.7188,-6.4492 -11.1992,-13.1367 -16.2891,-20.1601 -5.039,-7.0274 -9.8515,-14.2891 -13.7422,-22.0781 3.0704,8.1601 7.1133,15.9609 11.461,23.5586 4.3711,7.6015 9.2109,14.9414 14.332,22.1015 5.2188,7.0703 10.6484,14.0391 16.4805,20.6602 5.7695,6.6914 11.9179,13.0508 18.1992,19.3008 l 1.3008,-1.4922 c -0.1719,4.1523 -0.25,8.0703 -0.293,11.832 z m -215.41409,34.2305 h -0.0391 c -31.625,-2.461 -63.52344,-0.4727 -94.69922,4.4492 -31.17969,4.918 -61.89844,12.9883 -90.70703,25.4375 -28.95312,12.2109 -55.30078,29.3633 -79.71094,48.582 -24.64062,19.1602 -45.80078,42.4297 -65.48828,67.5195 -0.19922,0.2813 -0.57812,0.3399 -0.85156,0.1407 -0.23828,-0.1797 -0.30469,-0.5117 -0.18359,-0.7696 7.24609,-14.2304 15.30859,-28.3203 25.46093,-40.9101 4.70703,-6.6016 10.37891,-12.3789 15.70313,-18.5117 2.76172,-2.9688 5.76953,-5.6875 8.64844,-8.5508 2.87109,-2.8672 5.83593,-5.6485 8.96093,-8.2383 24.44532,-21.5586 53.78125,-36.7617 83.83203,-48.25 30.11329,-11.6602 61.73829,-18.6797 93.52344,-22.4609 31.85156,-3.3672 63.9961,-3.7305 95.67188,0.3593 0.33203,0.043 0.5664,0.3399 0.52343,0.6797 -0.043,0.3203 -0.32812,0.5508 -0.64453,0.5235 z m -87.73828,38.2187 c -16.2539,1.2188 -32.39844,3.8008 -48.17187,7.5 -15.8086,3.5703 -31.26953,8.3906 -46.09375,14.4883 -14.82032,6.293 -28.14844,14.9414 -41.625,23.043 -13.38672,8.4687 -25.30078,18.5703 -37.78516,29.6484 l -0.0312,0.02 c -0.25,0.2305 -0.64062,0.211 -0.86719,-0.051 -0.16797,-0.1875 -0.19531,-0.4493 -0.0937,-0.668 7.10938,-15.1289 18.40235,-28.4492 31.80469,-38.8711 13.55859,-10.3203 29.45313,-16.7109 45.16406,-22.1914 15.875,-5.1992 32.07813,-8.9375 48.41797,-11.3672 16.37891,-2.1602 32.83203,-3.4805 49.28516,-2.7617 0.33594,0.012 0.59765,0.3008 0.58203,0.6289 -0.0117,0.3125 -0.28516,0.5625 -0.58594,0.582 z m 35.375,-377.9101 c -6.03515,13.5195 -11.28906,27.3789 -15.69922,41.4492 -4.5664,14.0117 -8.29297,28.25 -11.13672,42.6015 -2.92187,14.3789 -3.48046,28.9375 -5.53515,43.2305 -1.82422,14.4102 -2.46485,28.7305 -3.71094,43.8789 v 0.031 c -0.0312,0.3398 -0.32812,0.5976 -0.66797,0.5703 -0.24609,-0.024 -0.44531,-0.1836 -0.52734,-0.4024 -5.40235,-14.2382 -7.45703,-29.6797 -7.1836,-44.9101 0.33985,-15.2696 4.15235,-30.1485 8.19141,-44.6406 4.12891,-14.5 9.10938,-28.6797 14.89453,-42.4805 6.01953,-13.707 12.50391,-27.1797 20.3125,-39.918 0.17578,-0.2812 0.54688,-0.3711 0.83203,-0.1992 0.26563,0.1602 0.35157,0.5078 0.23047,0.7891 z m -28.63672,-15.25 c -14.37109,25.8789 -24.3164,54.0117 -29.96484,82.8789 -5.53906,28.9804 -5.91797,58.4922 -4.76953,87.832 1.08203,29.418 5.14844,58.7773 10.10547,88.4102 0.0547,0.3281 -0.17188,0.6406 -0.5,0.6992 -0.28907,0.051 -0.5625,-0.1094 -0.66797,-0.3711 -11.40235,-27.8985 -18.27735,-57.6875 -21.03516,-87.9688 -1.55469,-15.1406 -1.14453,-30.4414 0,-45.6093 1.42969,-15.1797 4.00781,-30.211 7.38672,-45.0196 7.03906,-29.5703 18.45703,-58.0703 34.20703,-83.9023 16.02344,-25.5899 35.625,-49.1211 59.75391,-67.1875 0.26562,-0.2031 0.64844,-0.1406 0.84765,0.1289 0.19141,0.25 0.14844,0.6211 -0.0937,0.8203 l -0.043,0.039 c -22.85157,19.1093 -40.94922,43.4296 -55.22657,69.25 z m -34.67578,294.8203 c -9.51953,-5.6602 -19.25781,-10.7813 -28.17969,-17.2617 -9.29687,-5.8399 -17.88671,-12.6875 -26.57812,-19.2969 -4.24219,-3.4531 -8.27734,-7.1602 -12.41406,-10.711 -2.03907,-1.8203 -4.15235,-3.539 -6.125,-5.4218 l -5.8125,-5.7696 c -3.81641,-3.9101 -7.86328,-7.539 -11.5,-11.6093 l -11.03516,-12.0391 c -3.62109,-4.0625 -6.93359,-8.4102 -10.41406,-12.5898 l -5.12891,-6.3399 -4.80859,-6.6133 c -23.33985,-31.8476 -42.44922,-66.7187 -57.91797,-103.207 58.84766,-32.8711 215.64453,-144.3516 167.96094,-379.6797 0,0 -190.50782,78.9102 -198.02735,292.5 -4.55859,-16.582 -8.42968,-33.3711 -11.84765,-50.25 -4.55078,-21.5312 -7.9375,-43.3125 -10.57422,-65.1719 -2.7461,-21.8476 -4.54297,-43.8203 -5.48047,-65.8007 -0.40234,-10.9883 -0.67969,-21.9805 -0.59766,-32.9493 l -0.0625,-17.6406 c 54.9375,-33.2187 193.75391,-139.17967 162.20703,-347.42965 20.32813,0.53906 41.98829,0.5 65.10547,-0.21875 55.78125,-1.74219 113.44532,-0.17188 171.67578,3.08984 0.20313,62.37109 -0.84765,137.91799 -5.01171,214.55859 -30.66016,27.41017 -55.20313,55.31247 -66.46875,84.23047 -8.07422,9.7617 -12.14454,20.3515 -12.08204,31.7109 0.0977,19.7383 6.91797,36.1914 20.25782,48.8906 10.12109,9.6407 23.78906,16.8204 40.28515,22.168 -5.57812,36.6914 -12.43359,70.9414 -20.83984,100.9609 -0.24609,0.8907 -0.49609,1.7305 -0.74219,2.6094 -5.13281,-14.1875 -11.19531,-28.6875 -18.39062,-43.539 0,0 -194.76172,146.1992 -102.15235,388.75 -0.0703,8.4804 1.76953,16.7812 5.23828,24.3398 -0.17968,-0.09 -0.35937,-0.1797 -0.53906,-0.2695 z M 597.73505,1463.3165 c -11.31641,-9.668 -23.27344,-18.5469 -35.71875,-26.6172 -24.73437,-16.3828 -51.625,-29.332 -79.64844,-38.4102 -28.08984,-9.1601 -57.35937,-12.9726 -86.54687,-15.2695 -29.32031,-1.9219 -58.84766,-0.4531 -88.72656,2.7305 -0.33594,0.039 -0.63672,-0.211 -0.67579,-0.543 -0.0312,-0.2891 0.14844,-0.5508 0.41016,-0.6406 28.54688,-9.7266 59.03906,-14.0195 89.52344,-13.6602 15.23437,0.5 30.48047,2.1016 45.38672,5.3907 14.85937,3.4023 29.57812,7.4296 43.78906,12.8203 28.5,10.5312 55.45312,24.9101 79.92578,42.5898 12.20313,8.8828 23.81641,18.5313 34.71094,28.9102 4.76172,4.5312 9.39062,9.2109 13.88281,14.0117 5.77734,6.168 11.3125,12.5586 16.41797,19.3203 0.20312,0.2578 0.15234,0.6406 -0.11719,0.8477 -0.25781,0.1914 -0.61719,0.1523 -0.82422,-0.09 l -0.0234,-0.027 c -3.6875,-4.3711 -7.60547,-8.543 -11.6211,-12.6211 -6.43359,-6.5391 -13.17969,-12.7891 -20.14453,-18.7422 z m -32.90625,13.9414 c -0.21484,0.2187 -0.56641,0.2422 -0.80469,0.051 l -0.0273,-0.02 c -14.41797,-11.3125 -29.89063,-21.25 -45.95703,-29.8593 -16.00391,-8.7305 -32.72266,-16.0118 -49.8711,-21.6602 l -12.96484,-3.8633 -13.1875,-2.789 c -4.32812,-1.1993 -8.79687,-1.6172 -13.19531,-2.3672 -4.40625,-0.6719 -8.75391,-1.8828 -13.20313,-2.1836 -17.71093,-3.1094 -35.49218,-3.0586 -54.17968,-3.6797 h -0.0508 c -0.33593,-0.01 -0.60156,-0.2969 -0.58984,-0.6289 0.008,-0.2578 0.18359,-0.4805 0.41406,-0.5586 4.41016,-1.4922 8.9336,-2.6992 13.49219,-3.9219 2.28516,-0.5703 4.58203,-1.1679 6.89063,-1.6679 l 7.0039,-0.8204 c 4.6836,-0.5195 9.41406,-1.0312 14.14063,-1.2226 l 14.1875,0.4531 c 18.91406,1.4297 37.26172,6.9883 54.53906,14.1289 17.37109,7.0195 33.97266,15.6211 49.65625,25.5586 15.52344,10.1914 30.41406,21.293 43.69531,34.1914 0.23828,0.2305 0.2461,0.6211 0.0117,0.8594 z m 165.5,-284.9805 -0.0273,0.02 c -10.25391,10.9296 -19.45703,22.832 -27.53907,35.3398 -8.21093,12.4297 -15.25,25.5625 -21.01953,39.1328 -6,13.5274 -9.27734,27.8672 -13.44531,41.7969 -4.52734,14 -6.69141,28.3906 -10.44141,43.3711 l -0.0117,0.039 c -0.082,0.3321 -0.41797,0.5313 -0.7461,0.4532 -0.23828,-0.062 -0.40625,-0.25 -0.45312,-0.4805 -0.77735,-3.7617 -1.25391,-7.582 -1.74219,-11.4297 l -0.59766,-5.793 c -0.1289,-1.9296 0.0156,-3.8476 0.0117,-5.7773 0.0117,-3.8828 0.27344,-7.7422 0.42578,-11.6406 0.46875,-3.8399 1.17188,-7.6524 1.75391,-11.5 l 1.08203,-5.7305 1.64063,-5.5781 c 1.1875,-3.6914 2.30078,-7.4219 3.78906,-10.9922 3.19531,-7.0703 6.23828,-14.1602 9.97265,-20.8984 7.13672,-13.6094 15.46875,-26.5118 24.86719,-38.5118 9.60547,-11.8398 19.92578,-23.0507 31.65235,-32.6992 0.25781,-0.2187 0.64062,-0.1797 0.85546,0.078 0.19141,0.2422 0.17969,0.5821 -0.0273,0.8008 z m -105.51562,137.4102 c 1.4414,-15.0508 4.91015,-29.8399 8.93359,-44.3985 4.4375,-14.4804 9.78906,-28.6406 15.96875,-42.4218 12.67187,-27.3985 29.26953,-52.9883 49.75,-75.0078 20.68359,-21.7227 44.49609,-40.7032 71.70312,-53.2305 0.30469,-0.1289 0.66407,0 0.80079,0.3008 0.13671,0.289 0.0195,0.6367 -0.26172,0.789 l -0.0508,0.031 c -26.16407,13.8086 -48.65625,33.8594 -67.66407,56.1367 -19.1289,22.332 -34.20312,47.8516 -45.3789,74.8398 -11.00391,27.1524 -17.10938,55.8204 -21.79297,84.6133 -4.77344,28.8594 -6.6836,58.2383 -7.88672,88.0469 -0.0117,0.3398 -0.29688,0.6016 -0.63281,0.5898 -0.2461,-0.01 -0.40235,-0.207 -0.48828,-0.4296 -0.0156,-0.027 -0.0781,-0.027 -0.0859,-0.07 -0.0156,-0.078 -0.0234,-0.1601 -0.043,-0.25 -5.42578,-29.3476 -6.16016,-59.6093 -2.87109,-89.539 z m 38.73046,-464.76957 c -7.49609,12.461 -14.51953,25.1915 -20.94531,38.1719 -6.55469,12.9102 -12.64844,26.0274 -17.92969,39.418 -5.27343,13.4101 -8.95703,27.2617 -13.75,40.6211 -4.58203,13.4883 -8.59765,26.96087 -12.71875,41.25777 -0.082,0.332 -0.42187,0.5312 -0.7539,0.4531 -0.23828,-0.062 -0.41016,-0.2734 -0.45703,-0.5 -2.57422,-14.8008 -0.9336,-30.02337 2.28125,-44.56247 3.30859,-14.6094 10.17578,-27.9492 16.54297,-41.2109 6.53125,-13.2188 13.8125,-25.9883 21.50781,-38.457 7.92969,-12.3321 16.09765,-24.461 25.23828,-35.8907 0.21094,-0.2617 0.59375,-0.3125 0.85156,-0.1015 0.24219,0.1914 0.28906,0.5507 0.13281,0.8007 z m -92.64843,231.10937 c 0.0117,0.3399 -0.25391,0.6211 -0.58985,0.6289 -0.29297,0.012 -0.54297,-0.1875 -0.60937,-0.457 -7.6211,-29.7695 -9.83203,-61.0313 -7.1836,-92.0117 0.61719,-7.73827 1.92188,-15.43747 3.21875,-23.09767 1.36329,-6.1015 2.76172,-12.1836 4.42188,-18.2031 0.41016,-1.4805 0.75,-2.9883 1.20703,-4.457 4.43359,-14.9219 10.07813,-29.4727 16.87891,-43.4102 13.30078,-28.0508 31.34375,-53.6601 52.65234,-75.8906 21.51563,-22.0196 46.00391,-41.17189 73.35547,-55.06252 0.30078,-0.14844 0.66406,-0.0273 0.81641,0.27344 0.14453,0.28906 0.0391,0.63672 -0.23438,0.79687 l -0.0469,0.0195 c -26.32422,15.17188 -49.53907,35.42191 -69.4336,58.07031 -20.0039,22.6133 -36.52344,48.2227 -48.28515,75.8125 -3.08594,6.8282 -5.48438,13.9375 -8.06641,20.961 -2.125,7.1797 -4.47656,14.2773 -6.0625,21.5898 -3.80469,14.4492 -6.21875,29.1992 -8.38281,43.98827 -0.0156,0.1016 -0.0234,0.2109 -0.0391,0.3086 -4.07812,29.5703 -4.60156,59.6406 -3.61718,90.1406 z M 546.34052,837.76963 c -3.21094,-10.8711 -6.59375,-21.75 -10.54297,-32.3906 4.13281,-9.42189 12.4375,-30.26955 19.04688,-58.81252 32.33203,12.07031 73.35546,21.68359 125.4414,26.79297 -38.47265,29.28905 -88.14453,78.77735 -115.19922,152.41015 -1.09375,-7.1523 -2.14062,-14.3125 -3.375,-21.4414 -4.5,-22.3516 -8.85547,-44.6992 -15.37109,-66.5586 z m -5.37891,382.66017 c -0.3125,0.07 -0.6289,-0.1133 -0.72265,-0.4102 l -0.0117,-0.043 c -8.85156,-28.3476 -22.5586,-55.0781 -38.99219,-79.5898 -16.32031,-24.6367 -36.19141,-46.7891 -58.6875,-65.5898 -22.57812,-18.8477 -48.38672,-32.918 -74.79297,-45.2188 -26.66797,-11.9883 -54.82812,-20.6406 -83.93359,-27.6797 -0.32813,-0.082 -0.53125,-0.3984 -0.45313,-0.7305 0.0625,-0.2812 0.32032,-0.4687 0.59766,-0.4687 30.05469,0.4102 60.14844,6.75 88.52734,17.7187 14.0625,5.8008 27.73828,12.6915 40.4336,21.1211 12.60937,8.5196 24.78515,17.6797 35.96875,27.9297 22.45703,20.3711 41.85547,43.9102 57.44922,69.6602 7.76171,12.8984 14.58984,26.3203 20.5039,40.0898 5.90235,13.7891 11.00781,27.8985 14.55469,42.4805 0.082,0.3203 -0.11719,0.6484 -0.44141,0.7305 z m -53.59765,-43.961 c -0.28125,0.1289 -0.61328,0.031 -0.76953,-0.2304 l -0.0195,-0.031 c -9.07031,-15 -19.54687,-29.1289 -31.00781,-42.2578 -11.35547,-13.2305 -23.83594,-25.4102 -37.23437,-36.3008 -13.26953,-11.1719 -28.45313,-19.3594 -42.95313,-28.2695 -14.58984,-9.1406 -30.36328,-15.5391 -46.55078,-23.2305 l -0.0391,-0.02 c -0.3086,-0.1406 -0.4375,-0.5117 -0.29297,-0.8203 0.11328,-0.2305 0.35156,-0.3594 0.59375,-0.3399 4.44922,0.2813 8.89062,0.8711 13.37109,1.4492 l 6.70313,1.0196 6.5,1.8008 c 4.34765,1.2109 8.67969,2.539 12.97656,3.9804 l 12.42578,5.4492 c 16.34375,7.8907 30.65235,19.3399 43.6211,31.6485 13.08984,12.2422 24.99609,25.6015 35.61328,39.8515 10.39453,14.4102 19.90625,29.4297 27.35937,45.5 0.14063,0.3008 0.008,0.6602 -0.29687,0.8008 z m 29.47656,-481.60151 c -0.0469,0.33203 -0.35547,0.5625 -0.6875,0.51953 -0.30859,-0.0469 -0.52734,-0.32031 -0.51953,-0.6289 l 0.004,-0.0195 c 0.58985,-17.35157 -0.21093,-34.73047 -2.1914,-51.89063 -1.83594,-17.17969 -4.96485,-34.16016 -9.38672,-50.69922 -4.33594,-16.64062 -11.55078,-32.10156 -17.74219,-47.78906 -6.42969,-15.76172 -14.77734,-30.33984 -23.33984,-45.85938 l -0.0195,-0.043 c -0.16407,-0.28907 -0.0547,-0.66797 0.24218,-0.82813 0.22657,-0.12109 0.5,-0.0898 0.6836,0.0586 3.40234,2.82032 6.61328,5.87891 9.86328,8.96875 1.5625,1.59375 3.26562,3.09375 4.69922,4.79297 l 4.14453,5.23828 c 2.71484,3.53907 5.58984,7.05079 7.92578,10.85157 l 6.75,11.61718 c 8.27344,15.94141 12.82422,33.4336 16.23047,50.77344 3.375,17.37891 5.34375,34.9375 5.99219,52.48828 0.375,17.5586 -0.11719,35.1211 -2.64844,52.44922 z M 438.57099,428.08995 c 0.21094,-0.20313 0.52734,-0.22266 0.75781,-0.0625 24.83203,16.85156 46.44531,38.6289 64.15625,63.30078 8.58594,12.51953 16.23047,25.73828 22.30859,39.67969 5.92969,13.98047 11.17188,28.24218 15.05079,42.87109 7.875,29.21094 11.6289,59.41016 11.10156,89.44922 -0.3086,15.01953 -1.64453,29.98047 -3.9375,44.78125 -2.30469,14.78906 -5.4336,29.4375 -10.11328,43.66016 -0.10547,0.32031 -0.44532,0.48828 -0.76563,0.38671 -0.30078,-0.0977 -0.47265,-0.41796 -0.39453,-0.72656 l 0.0117,-0.043 c 7.44531,-28.69922 9.99219,-58.57031 9.13672,-88.02734 -0.67969,-29.5 -5.57031,-58.80078 -14.33985,-86.73047 -8.80859,-28.03125 -22.79296,-53.83203 -38.1289,-78.5625 -15.73828,-24.58984 -34.47656,-47.25781 -54.8711,-69.11719 -0.23046,-0.24218 -0.21875,-0.63281 0.0274,-0.85937 z m 180.28515,80.16015 c 22.1875,-12.20312 43.04688,-26.76171 63.05469,-42.23046 19.875,-15.65235 39.13281,-32.13282 56.76172,-50.25 l 6.73438,-6.66016 6.43359,-6.95313 12.84375,-13.90625 12.12109,-14.54296 6.0625,-7.25782 c 1.96485,-2.46093 3.78125,-5.04297 5.67969,-7.5625 l 11.28125,-15.16797 c 3.83203,-5 6.99219,-10.48046 10.52344,-15.6914 3.41015,-5.28906 6.96094,-10.5 10.2539,-15.85938 l 9.26563,-16.4414 c 6.48047,-10.79688 11.53125,-22.33985 16.92187,-33.6875 5.3711,-11.23047 10.6836,-23.08203 16.03516,-34.64063 2.57031,-5.87109 5.70703,-11.46094 8.71484,-17.12109 l 9.11719,-16.92969 10.27344,-16.30078 c 1.73437,-2.69922 3.38281,-5.45703 5.1875,-8.11719 l 5.63672,-7.83203 c 15.13281,-20.73047 32.11328,-40.44141 52.25,-56.64844 10.28125,-7.812504 20.69531,-15.480474 32.28125,-21.242184 2.80863,-1.57032 5.80863,-2.78907 8.76953,-4.07032 2.9219,-1.34765 5.94143,-2.45703 9.00003,-3.48047 6.0703,-2.13671 12.3203,-3.76953 18.7891,-4.26953 0.3007,-0.0195 0.5625,0.20313 0.582,0.5 0.019,0.28125 -0.1602,0.51953 -0.4219,0.57032 l -0.07,0.0195 c -12.2305,2.72265 -23.64063,8.51172 -34.20703,15.07031 -10.78128,6.35156 -20.39456,14.472664 -29.77737,22.660164 -18.43389,16.87112 -34.45733,36.31253 -48.29327,57.1719 l -5.40234,7.67969 c -1.73047,2.59765 -3.3086,5.32031 -4.96875,7.98047 l -9.85547,16.00781 -9.12109,16.48047 c -3.03907,5.5 -6.20704,10.92969 -8.82422,16.66015 -5.60938,11.32032 -10.9961,22.49219 -16.875,34.01172 -5.8125,11.41797 -11.28125,23.01953 -18.16797,33.83985 l -9.78125,16.50781 c -3.46485,5.37109 -7.17969,10.58984 -10.75781,15.89062 -3.69532,5.21094 -7.02344,10.69141 -11.01954,15.67969 l -11.75781,15.13281 c -1.97656,2.50782 -3.875,5.07813 -5.91797,7.52735 l -6.29297,7.22265 -12.57421,14.4375 -13.27735,13.78125 -6.64844,6.8711 -6.9375,6.57812 c -18.3125,17.76172 -38.17968,33.8086 -58.60156,48.96094 -20.57031,14.96875 -41.88281,28.96875 -64.53906,40.58984 -0.26563,0.14063 -0.59375,0.0312 -0.73047,-0.23046 -0.13672,-0.26954 -0.0117,-0.60157 0.24609,-0.73829 z M 1099.6374,256.08995 c 12.9532,11.46875 26.5313,22.23828 38.6133,34.63672 12.1172,12.33984 23.9297,25.01172 34.5,39.01172 0.1875,0.23828 0.1367,0.58984 -0.1133,0.76953 -0.1875,0.14062 -0.4375,0.14062 -0.6289,0.0195 -14.6679,-9.6211 -28.0898,-20.57031 -41.2109,-31.84766 -13.1602,-11.23047 -24.8086,-24.07031 -37.1094,-36.22265 l -36.7383,-36.62888 -36.3711,-37.01953 c -0.2109,-0.21094 -0.1992,-0.5586 0.012,-0.76953 0.1992,-0.19922 0.5273,-0.19922 0.7382,-0.0195 l 39.3399,33.83984 z m 12.2617,-66.1211 c 0.211,-0.16015 0.4883,-0.15234 0.6797,0 5.961,4.73047 11.6993,9.66016 17.5586,14.48047 l 17.1719,14.85938 c 5.6719,5 12.0117,9.33984 16.7891,15.23828 4.8203,5.85937 9.332,12.01953 12.5507,19.49219 0.129,0.28906 -0.012,0.64062 -0.3085,0.76953 -0.1524,0.0586 -0.3204,0.0586 -0.461,0 -7.4687,-3.21875 -13.6289,-7.73047 -19.4805,-12.55078 -5.9101,-4.78125 -10.25,-11.1211 -15.25,-16.78907 l -14.8593,-17.17187 c -4.8203,-5.85938 -9.75,-11.59766 -14.4805,-17.55859 -0.1797,-0.23047 -0.1406,-0.58204 0.09,-0.76954 z m 25.2696,-48.53906 c 0.2109,-0.14062 0.4804,-0.13281 0.6719,0.0195 4.8398,3.9375 9.4687,8.07813 14.207,12.10938 4.6719,4.09765 9.2812,8.25781 13.8203,12.48047 4.543,4.21093 9.8008,7.76953 13.4102,12.84765 3.6718,5.01953 7.0312,10.35157 9.0312,16.92188 0.1016,0.32031 -0.078,0.66015 -0.3984,0.75781 -0.1407,0.043 -0.2813,0.0312 -0.4024,-0.0195 -6.4101,-2.48047 -11.4687,-6.21875 -16.2109,-10.25 -4.7969,-3.98047 -7.9492,-9.48828 -11.8164,-14.32813 -3.8711,-4.83984 -7.6836,-9.74218 -11.4219,-14.69921 -3.6719,-5.03125 -7.4492,-9.95313 -11.0195,-15.08204 -0.1797,-0.25 -0.1094,-0.58984 0.1289,-0.75781 z m 4.1523,-75.863284 c 31.918,1.58984 62.418,14.72266 87.8477,33.83984 25.4492,19.402354 45.1289,45.621104 59.5703,74.011724 l 5.332,10.73828 c 1.8867,3.53125 3.0078,7.39063 4.5469,11.07032 2.8008,7.4414 5.9609,14.89062 8.4609,22.33984 l 7.8086,22.35156 8.2227,22.19141 c 11.3398,29.35937 23.8711,58.41016 40.3203,84.86719 8.25,13.1914 17.8906,25.37109 28.9102,36.13281 11.0468,10.75781 23.5468,20.00781 36.4375,29 12.8515,9.07812 26.0195,17.77734 39.0703,26.82031 12.9726,9.12891 25.8828,18.42969 38.5117,28.12891 24.9297,19.80078 49.0586,40.91797 70.168,64.89844 5.1015,6.15234 10.4804,12.03125 15.2031,18.49218 l 7.2773,9.48828 6.75,9.8711 c 8.9219,13.21094 16.5625,27.23047 23.3203,41.57031 0.1094,0.23828 0.012,0.5 -0.1914,0.64844 -0.027,0.0195 -0.039,0.0625 -0.066,0.0703 -0.2617,0.12109 -0.5625,0.0312 -0.7031,-0.19922 l -0.01,-0.0312 -0.3711,-0.58984 -5.8594,-9.48828 c -2.082,-3.35157 -3.9687,-6.80078 -6.3203,-9.98047 -4.5391,-6.44141 -8.8086,-13.03906 -13.8398,-19.10938 l -7.1914,-9.32031 -7.6602,-8.94141 c -4.9688,-6.07031 -10.5898,-11.57812 -15.9102,-17.32031 -21.8984,-22.46094 -45.9296,-42.75781 -71.207,-61.39062 -25.0898,-18.92969 -51.4531,-36.16016 -77.2422,-54.83985 -12.8281,-9.3789 -25.6601,-19.27734 -37.0508,-30.86718 -11.3671,-11.58985 -21.207,-24.64063 -29.4296,-38.45313 -16.5196,-27.61719 -28.6172,-57.20703 -39.5469,-86.97656 l -7.8906,-22.46094 -7.4532,-22.58203 c -2.4062,-7.57813 -5.3281,-14.75781 -7.957,-22.16797 -1.4492,-3.62891 -2.4922,-7.44922 -4.2813,-10.92969 l -5.039,-10.60937 c -13.5117,-28.13281 -32.1602,-54.23047 -56.6992,-73.86328 -24.4922,-19.328134 -54.3828,-33.019534 -85.8399,-35.320324 l -0.07,-0.008 c -0.3008,-0.0195 -0.5195,-0.28125 -0.5,-0.58203 0.02,-0.29687 0.2774,-0.51953 0.5703,-0.5 z m 494.4766,688.511724 c -41.3867,36 -125.9688,44.19922 -230.0586,41.17187 -25.3906,-43.53125 -54.8203,-73.21093 -135.0391,-79.88281 -29.2187,-2.41797 -51.7695,2.23047 -69.9218,11.53906 -19.0704,-8.21875 -38.0079,-16.75781 -56.5782,-26.34765 0.2891,-17.87891 0.6289,-33.16016 0.9492,-45.17188 0.059,-2.1875 -0.07,-4.34765 -0.2617,-6.5 38.4532,18.85157 79.4727,31.98047 120.8907,42.75 44.332,11.21094 89.7929,17.55078 135.3125,20.79297 l 17.0585,1.41016 17.1016,0.6289 c 11.4102,0.30079 22.7969,1.10938 34.1992,0.98829 22.8086,-0.39844 45.6211,-0.21875 68.3399,-2.34766 42.6406,-2.44141 84.7578,-9.72266 126.4609,-18.21094 -1.8125,24.66016 -11.082,44.07813 -28.4531,59.17969 z m -353.9297,299.96087 c 0.8516,-5.039 1.6133,-10.082 2.2812,-15.1406 0.6797,-5.039 2.3321,-10.0508 1.7383,-15.1601 -0.059,-0.5391 -0.1367,-1.0821 -0.207,-1.6289 54.8281,1.2695 109.8906,5.3593 160.8906,12.1093 -3.3515,1.2696 -6.6523,2.5782 -9.9804,3.7891 -6.2696,2.2109 -12.2618,4.8516 -18.5,6.9297 -12.25,4.5625 -24.211,9.9609 -36.8008,13.8906 -12.5391,4 -25.4492,6.8906 -38.5117,8.9688 -7.8204,1.332 -15.7188,2.2617 -23.6602,2.8203 -0.1367,-0.07 -0.2578,-0.1602 -0.3984,-0.2305 -14.3789,-6.7305 -27.1407,-9.1172 -38.1602,-9.0391 0.4297,-2.4297 0.8594,-4.8711 1.3086,-7.3086 z m -32.9102,15.1289 c -2.7578,1.4493 -5.25,3.25 -7.5078,5.3008 -13.5312,-1.6289 -27.0312,-3.5195 -40.4492,-5.789 -17.1797,-2.7735 -34.2695,-5.9922 -51.1211,-10 -16.8789,-3.9727 -33.25,-9.4922 -49.5703,-14.4297 -9.8789,-3.1524 -19.6797,-6.4336 -29.0508,-10.7735 53.1719,-7.9492 114.6797,-11.8086 177.8321,-11.8086 8.707,0 17.457,0.09 26.207,0.2383 -0.09,0.4532 -0.207,0.9102 -0.2891,1.3711 -1.0195,5.0391 0.1914,10.1719 0.4414,15.2617 0.2305,5.0782 0.5586,10.168 0.9805,15.2696 0.2578,2.539 0.4805,5.0898 0.707,7.6289 -11.5468,0.6289 -21.0195,3.9804 -28.1797,7.7304 z m -19.8867,32.7618 c -0.012,0.5976 -0.031,1.2968 -0.043,1.9297 -24.0704,6.9804 -48.7579,11.7382 -73.5469,14.7968 -27.5508,3.4805 -55.3633,4.5625 -82.961,3.2735 -27.6718,-0.9727 -54.8593,-6.0899 -81.74223,-11.6211 l -20.16792,-4.4688 c -6.59766,-1.9414 -13.17969,-3.9804 -19.85156,-5.8203 l -9.99219,-2.8633 -9.74219,-3.5898 c -4.0664,-1.3867 -8.125,-2.8281 -12.20703,-4.2383 6.16016,-7.5898 15.70313,-14.8008 28.78906,-21.5703 27.96094,-14.4492 67.90236,-25.3516 114.89456,-32.918 3.1875,2.7969 6.6172,5.3477 10.168,7.6172 7.5625,4.9414 15.7304,8.6992 24,12.0508 16.582,6.7305 34.1797,9.6211 51.4609,12.6992 17.3399,3 34.75,5.1719 52.1797,6.8711 13.0508,1.1016 26.1094,1.8398 39.1797,2.3516 -6.3906,6.7265 -10.2383,15.7578 -10.418,25.5 z m -311.87111,-10.4532 c 3.9336,2.2227 7.89063,4.4102 11.84375,6.6524 l 9.34375,5.0078 c 3.19141,1.4922 6.5,2.7109 9.75391,4.082 6.51953,2.711 13.13281,5.2188 19.72266,7.8282 l 20.40621,5.8593 c 3.4297,0.8711 6.8282,1.8828 10.2891,2.6328 l 10.44143,1.9102 c 6.9883,1.0703 13.9492,2.4375 20.9883,3.0977 l 21.1406,1.5507 c 7.0313,0.6016 14.1016,0.3321 21.1406,0.5391 28.1797,0.2227 56.3086,-1.9883 84,-6.5898 24.6993,-4.3594 49.0782,-10.3907 72.7305,-18.5704 -0.1719,8.0235 -0.4023,17.9219 -0.7617,29.4532 -11.3789,6.5468 -23.8516,11.2578 -36.2578,15.4765 -15.6328,5.3203 -31.5938,9.6719 -47.7813,13 -16.1289,3.6133 -32.6093,5.3008 -48.75,8.9024 -8.1211,1.5781 -16.2187,3.3203 -24.3203,5.2383 -1.7305,0.3593 -3.4609,0.8125 -5.1914,1.2031 -64.2578,-1.0117 -116.0469,-8.3125 -140.17971,-31.293 -10.14063,-9.6601 -15.10938,-21.8086 -15.1875,-37.1484 -0.0352,-6.5 2.27344,-12.7696 6.6289,-18.8321 z m 76.60938,-101.58977 c 21.42193,-18.7188 44.85943,-34.75 67.87893,-51.0977 11.4414,-8.2421 23.1524,-16.2812 33.8125,-25.2812 10.5195,-9.1016 19.4297,-20.0899 27.5,-31.5781 16.0469,-23.1016 29.1484,-48.3125 40.0703,-74.3321 0.047,-0.1406 0.2071,-0.2109 0.3477,-0.1484 0.1406,0.051 0.1992,0.207 0.1601,0.3476 -10.2695,26.3516 -22.7304,51.9297 -38.3398,75.6719 -7.9297,11.7578 -16.7305,23.0899 -27.4102,32.711 -10.7578,9.4375 -22.2578,17.6367 -33.5781,26.1367 -22.7109,16.8398 -45.293,33.7617 -66.91023,51.7226 -10.89448,8.87887 -21.39058,18.24997 -31.16401,28.30857 -9.125,9.3594 -17.67188,19.3399 -24.91797,30.3321 -0.51953,0.789 -1.09375,1.539 -1.60156,2.3476 -0.0781,0.1289 -0.2461,0.1719 -0.375,0.09 -0.11719,-0.07 -0.16016,-0.2305 -0.10157,-0.3477 0.24219,-0.5 0.54297,-0.9609 0.78907,-1.4531 6.16796,-12.1992 14.44921,-23.2383 23.42187,-33.5469 9.33203,-10.7695 19.78516,-20.47257 30.41797,-29.88277 z m -1.8008,-333.46876 c -0.5273,-16.5 9.47273,-31.87109 24.89063,-38.26172 43.4688,-18 74.5508,-8.9375 92.9688,1.8125 12.0703,7.05079 19.332,20.44922 18.9531,34.98047 -0.9219,34.64844 -2.0508,96.17969 -1.2929,169.87891 -16.0977,36.3906 -31.5469,73.1094 -60.4571,94.9102 -11.5625,8.7187 -23.1719,17.4492 -34.6015,26.1796 1.8515,-17.7812 2.6914,-35.5507 3.1484,-53.3281 0.6406,-21.5234 -0.9375,-43.0234 -1.5703,-64.5429 l -2.1172,-64.53911 -2.6602,-64.53125 -1.0898,0.0117 -1.6992,64.57031 -1.1406,64.55865 c -0.3204,21.5195 -1.5704,43.039 -0.6094,64.5625 0.7695,18.6289 1.957,37.2578 4.289,55.8789 -7.5898,5.8203 -15.082,11.6484 -22.4023,17.4883 0.5,-5.4805 0.9531,-10.9688 1.4531,-16.4493 l 1.4688,-23.1289 c 0.9687,-15.4218 1.4687,-30.8398 1.9687,-46.2617 0.9297,-30.8476 -0.07,-61.707 -0.4492,-92.55861 l -1,-92.55078 c -0.031,-7.69922 -0.1016,-15.19141 1.0781,-22.66797 0.3203,-3.78125 1.5938,-7.33203 2.3321,-11.02344 1.3906,-3.45703 2.3789,-7.13671 4.3398,-10.32812 6.6289,-13.39063 20.8594,-22.85938 36.1289,-23.37891 l 0.043,-1.08984 c -15.7617,-0.25 -31.2305,8.91797 -39.0117,22.85937 -8.4415,13.73047 -9.8008,30.21875 -10.3516,45.62891 l -2.2774,92.51953 c -0.8007,30.83986 -2.2226,61.67976 -1.7226,92.51956 0.2812,15.4297 0.5703,30.8516 1.332,46.2812 l 1.1485,23.1407 c 0.4726,6.0703 0.8593,12.1406 1.3711,18.2109 -4.94933,3.9805 -9.82043,7.957 -14.60163,11.9492 6.7422,-136.9023 3.9414,-267.39062 2.1406,-323.30078 z m 32.07033,-173.96093 39.2618,0.92187 c 13.0976,0.17969 26.1406,1.23047 39.2187,1.80078 13.0586,0.89844 26.1719,1.1875 39.1914,2.59766 l 39.0703,3.94922 c 13.0274,1.33203 25.9688,3.28125 38.918,5.17968 12.9414,1.9336 25.9101,3.65235 38.8203,5.80079 25.7695,4.51171 51.4297,9.6914 76.9805,15.19921 0.3008,0.0625 0.4883,0.35157 0.4179,0.64063 -0.059,0.28125 -0.3281,0.45312 -0.5976,0.42969 -13.0391,-1.19922 -26,-2.77735 -38.9805,-4.14844 -12.9687,-1.48828 -25.8789,-3.33984 -38.8594,-4.60156 -26,-2.25 -51.8125,-5.88672 -77.8203,-7.66797 -25.9492,-2.26172 -51.8593,-4.90235 -77.8398,-6.6211 -12.9922,-0.91015 -25.961,-2.30078 -38.9727,-2.82812 l -39.0273,-1.94141 c -52.07036,-1.71093 -104.23833,-1.67968 -156.29302,1.28125 -26.01953,1.46875 -52.03906,3.35938 -77.93359,6.4375 -25.88672,2.98047 -51.77344,6.64063 -77.21094,12.3125 -0.29297,0.0781 -0.58984,-0.0898 -0.67187,-0.38281 -0.0781,-0.27734 0.11328,-0.57812 0.39453,-0.66797 25.38281,-6.41015 51.1875,-10.78906 77.07031,-14.5 25.87891,-3.80859 51.91406,-6.42969 77.98437,-8.64062 52.17188,-4.05078 104.54297,-5.17969 156.87891,-4.55078 z m -10.6679,-375.07813 c -17.92973,11.58984 -33.23835,25.55859 -46.75788,41.37109 -6.76953,7.85938 -13.48828,15.79688 -19.78906,24.14844 -6.44532,8.21875 -12.54688,16.78125 -18.16797,25.66797 -11.30078,17.75 -21.29688,36.42188 -30.31641,55.55078 -9.14453,19.08985 -17.47265,38.65235 -24.4414,58.69141 -0.0937,0.28906 -0.39844,0.44922 -0.6836,0.35937 -0.27734,-0.0898 -0.42969,-0.39062 -0.36328,-0.66015 5.60938,-20.57032 12.60938,-40.73047 20.5,-60.57813 8.10547,-19.76172 17.23828,-39.15234 27.83203,-57.83984 10.65235,-18.58985 21.9961,-37.28125 37.4375,-52.74219 15.10156,-15.5 33.55864,-28.75 54.30867,-34.96875 0.289,-0.082 0.6015,0.0781 0.6796,0.37109 0.07,0.23829 -0.039,0.5 -0.2382,0.62891 z m 274.0898,282.84766 c 8.2305,10.77343 16.8399,21.25 26.168,30.98047 9.2109,9.83984 19.1094,19 29.8203,26.88281 10.6484,7.82812 22.3203,15.48828 33.4805,23.17969 l 16.75,11.76953 16.4609,12.16797 c 21.6875,16.58984 43.1172,33.53125 63.4297,51.92187 0.2305,0.19922 0.2383,0.53906 0.039,0.76953 -0.1796,0.19141 -0.4687,0.21875 -0.6914,0.10156 -23.8789,-13.57031 -46.6367,-28.58203 -69.1484,-43.95312 -22.5391,-15.45703 -43.75,-32.12891 -65.6406,-49.05859 -10.918,-8.73047 -20.7305,-18.58204 -29.7383,-29.01954 -9.1406,-10.33203 -17.4414,-21.30078 -25.3203,-32.51953 -15.5899,-22.58203 -29.332,-46.29297 -41.332,-70.83984 -0.129,-0.26953 -0.02,-0.58984 0.25,-0.73047 0.2617,-0.12109 0.582,-0.0117 0.7304,0.23828 13.2305,23.78906 28.1719,46.65235 44.7422,68.10938 z m 283.168,186.87109 c -0.2188,0.16016 -0.5078,0.14063 -0.711,-0.0391 l -0.02,-0.0312 c -29.9492,-28.32031 -62.9101,-52.96094 -96.3984,-76.64844 -8.3399,-5.98047 -16.7891,-11.80078 -25.3008,-17.53906 -8.5078,-5.74219 -16.8984,-11.67188 -25.5508,-17.21094 -16.9883,-11.66016 -34.6797,-21.72266 -51.8086,-34.17969 l -6.4805,-4.44922 -6.0117,-5.08203 -11.9883,-10.16015 c -4.0195,-3.35157 -7.4101,-7.41016 -11.1289,-11.07032 l -5.4609,-5.64062 c -1.8594,-1.83984 -3.6406,-3.75781 -5.2109,-5.85938 -6.5196,-8.17968 -13.3477,-16.12109 -18.8282,-25.03906 -6.0898,-8.5 -10.8828,-17.78906 -15.9492,-26.89062 -18.4101,-37.35157 -29.5508,-78.26953 -30.6328,-119.71875 0,-0.30078 0.2422,-0.55078 0.543,-0.5625 0.289,-0.008 0.5273,0.22265 0.5469,0.51172 l 0.012,0.0508 c 2.5078,41.07812 15.0312,81.25781 34.3476,117.17968 5.211,8.78907 10.1211,17.75 16.3008,25.89063 5.5625,8.57031 12.4414,16.11719 18.9805,23.91016 1.5703,2 3.3515,3.82031 5.2109,5.55859 l 5.461,5.32812 c 3.707,3.47266 7.0703,7.3125 11.0703,10.46094 l 11.8867,9.53906 5.9336,4.76172 6.3984,4.14063 c 16.6406,11.32031 35.211,21.1289 52.6406,32.25 8.8204,5.44922 17.4688,11.16797 26.0977,16.92969 8.5195,5.91015 16.9727,11.91796 25.3203,18.07812 16.6094,12.45313 32.7109,25.58984 48.0195,39.61328 15.2735,14.04688 30.1524,28.62891 42.8125,45.14844 0.1797,0.23828 0.1407,0.57812 -0.1015,0.76953 z m -494.1211,2.83203 c 2.8203,-7.41015 3.0234,-15.4414 3.4922,-23.22265 0.4414,-7.80079 0.4609,-15.60938 -0.2305,-23.32813 -0.4492,-4.91016 -1.25,-9.76172 -2.1992,-14.5625 90.75,2.66016 177.3398,10.07031 254.6992,21.35156 -7.4492,6.03907 -15.1914,11.69141 -23.3516,16.69141 -19.207,12.07031 -40.0468,21.30859 -61.5195,28.44922 -21.5391,7.09765 -43.8086,11.32031 -65.9687,15.89062 -18.6094,3.76953 -37.3907,6.84766 -56.3985,9.58985 -2.1914,-1.80078 -4.4804,-3.48047 -6.9726,-4.92969 -11.5977,-6.76953 -27.4375,-12.95313 -47.2578,-14.08984 2.3281,-3.76172 4.1796,-7.76172 5.707,-11.83985 z m -84.95713,36.1875 c -4.0625,-0.5 -8.09761,-0.9375 -12.12886,-1.4375 -6.03125,-0.71094 -12.0625,-0.90234 -18.02343,-2.04297 -11.92969,-2 -23.89454,-3.08984 -35.60938,-5.85937 -23.58203,-4.25781 -47.01562,-9.62891 -69.8125,-17.3711 -22.82422,-7.66796 -44.69922,-18.1289 -65.55859,-30.28906 -14.13672,-8.1875 -27.79297,-17.36719 -40.61328,-27.59765 83.13281,-9.82032 177.41406,-14.67188 277.92577,-13.69141 15.8086,0.16016 31.5196,0.46094 47.1172,0.89844 0.043,4.92187 -0.027,9.82031 -0.5273,14.6914 -0.4024,7.48047 -1.4922,14.89063 -2.961,22.17188 -1.371,7.3164 -4.2382,14.21875 -5.371,21.5 -0.7891,4.73828 -1.4883,9.55859 -2.0586,14.5 -15.5508,0.0469 -33.3321,3.19922 -53.3204,11.46875 -7.3281,3.03906 -13.76173,7.55078 -19.05863,13.05859 z M 1354.7195,491.78917 c -18.6719,-3.1211 -36.9688,-7.26172 -55.5821,-10.0625 -18.4765,-3.34766 -37.0976,-5.84766 -55.6093,-8.82813 -37.1875,-5.08203 -74.2969,-10.8789 -111.6875,-14.96094 -37.4102,-3.84765 -74.9297,-6.82031 -112.5118,-8.87109 -37.58203,-2.17969 -75.23437,-3.66016 -112.90234,-3.84766 -0.30078,0 -0.54688,-0.24218 -0.55078,-0.53906 0,-0.30078 0.23828,-0.54297 0.53125,-0.55078 37.6875,-1.26953 75.41015,-1.24219 113.13287,-0.5 37.7187,0.96094 75.4179,2.84766 113.0898,5.64063 37.6485,2.91015 75.3516,6.33984 112.6406,12.86718 18.5508,3.79297 37.1797,7.08985 55.4493,12.16016 9.1406,2.47266 18.3515,4.57031 27.3593,7.53125 8.9922,2.98047 18.0313,5.76172 26.9297,8.91016 0.2891,0.10156 0.4414,0.41015 0.3399,0.69921 -0.09,0.25 -0.3789,0.39063 -0.6289,0.35157 z M 975.68036,656.9376 c 0.0899,2.71094 0.17969,5.62891 0.26953,8.67969 -8.16406,0.3125 -16.28515,0.78906 -24.41015,1.17188 -9.48047,0.55078 -18.91797,1.48828 -28.38672,1.77734 -9.49609,-0.0586 -18.95703,0.19141 -28.41406,0.29297 -9.45313,0.10937 -18.89844,0.75781 -28.33203,0.008 -18.86719,-0.75781 -37.75782,-0.66797 -56.52344,-2.71875 l -14.11328,-1.08984 c -4.71485,-0.33203 -9.42578,-0.66016 -14.07032,-1.49219 l -28.01562,-4.17988 c -37.08203,-6.98828 -73.66406,-17.34765 -108.32813,-32.55859 -8.63281,-3.85938 -17.37109,-7.53906 -25.64843,-12.14844 l -12.57422,-6.61328 -12.1836,-7.30859 c -14.5,-9.01953 -28.57031,-18.96094 -41.21875,-30.46094 52.64844,-16.4375 118.15235,-29.42969 192.78125,-38.39063 12.76563,11.70313 26.60157,22.25 41.07813,31.84375 20.59375,13.27735 42.39453,24.92969 65.37109,33.82813 22.91016,8.78906 46.47657,17.14062 71.09375,19.94922 12.1836,2.08203 24.57032,2.32031 36.85938,2.75 9.42187,0.24219 18.86719,-0.57813 28.23433,-1.48047 -8.87886,10.47266 -13.92183,24 -13.46871,38.14062 z M 1151.321,776.72667 c -2.5703,-0.22657 -5.1406,-0.45703 -7.7109,-0.6875 0,-26.73047 0.2187,-50.98047 0.539,-71.85938 7.3594,5.96875 15.1993,11.3086 23.2618,16.25781 5.2695,3.42188 10.8086,6.33204 16.2187,9.51172 l 6.3906,3.3086 c -16.1796,11.05078 -28.4218,26.25 -38.6992,43.46875 z m 241.0977,161.87106 c 8.4219,11.2305 17.6992,21.7891 27.582,31.6914 9.8477,9.961 20.668,18.8008 31.5586,27.4805 10.6602,9.07807 22.5195,16.41797 34.1484,24.52737 0.1211,0.082 0.1602,0.25 0.082,0.3828 -0.059,0.1093 -0.211,0.1484 -0.3321,0.098 -13.1093,-5.3476 -25.7265,-12.2187 -37.1875,-20.6679 -5.9023,-4.03127 -11.1328,-8.89067 -16.5,-13.56247 -5.0507,-5.0196 -10.2226,-9.8985 -14.9101,-15.2383 -19.3008,-20.8203 -35.7422,-44.2617 -48,-69.7188 -0.07,-0.1328 -0.012,-0.3008 0.1211,-0.3633 0.1289,-0.07 0.2969,0 0.3672,0.1329 6.6914,12.3671 14.5625,24.0781 23.0703,35.2382 z m -239.8477,-47.5586 c -4.6015,8.3594 -9.9609,16.2696 -15.6836,23.9297 -11.5781,15.168 -25.9492,28.5586 -42.9297,37.8594 -17.5078,7.6211 -33.0898,17.6094 -48.0898,29.1484 -14.9688,11.4024 -29.2695,23.76177 -42.8399,36.87107 -0.098,0.1094 -0.2773,0.1094 -0.3789,0 -0.1093,-0.098 -0.1093,-0.2695 -0.012,-0.3789 13.0821,-13.6523 26.9219,-26.57027 41.543,-38.62887 7.3398,-6 14.9687,-11.6601 22.9102,-16.9219 3.9375,-2.6601 8.0781,-5.0585 12.2304,-7.4179 4.3281,-2.1836 8.5586,-4.3633 12.5391,-6.4922 15.9297,-9.3906 28.9492,-23.1016 40.7695,-37.4297 6.0195,-7.1211 11.5,-14.7109 16.6914,-22.5 5.1367,-7.8203 9.9766,-15.8789 13.7383,-24.5117 0.051,-0.1485 0.2109,-0.2188 0.3516,-0.1602 0.1289,0.043 0.1992,0.1914 0.1679,0.3203 -2.3281,9.2618 -6.4687,17.9532 -11.0078,26.3125 z m 5.2774,41.7188 c -6.918,8.7812 -15.1993,16.3086 -23.6094,23.5 -16.9609,14.2617 -35.3594,26.6094 -54.9102,36.75 -0.1406,0.07 -0.3007,0.02 -0.3711,-0.1094 -0.07,-0.1289 -0.02,-0.289 0.1133,-0.3594 9.3985,-5.6523 18.3985,-11.9492 27.1172,-18.5703 8.75,-6.5625 17.1719,-13.5508 25.1524,-20.9609 7.9101,-7.5313 15.0703,-15.668 22.2968,-23.7109 7.0821,-8.1993 13.5703,-16.7696 19.793,-25.9375 0.078,-0.1329 0.25,-0.1719 0.3789,-0.09 0.1016,0.07 0.1406,0.207 0.1094,0.3203 -3.5586,10.5391 -9.3711,20.2578 -16.0703,29.168 z m 116.332,64.2422 c 25.4492,-0.031 50.9375,0.4883 76.3203,2.7695 25.3789,2.17967 50.6484,5.78907 75.5899,10.84767 0.1484,0.039 0.2382,0.1797 0.207,0.332 -0.027,0.1289 -0.1602,0.2187 -0.2891,0.207 -25.3789,-1.9687 -50.5703,-4.7773 -75.9179,-5.957 -25.293,-1.5508 -50.6016,-3.2813 -75.9727,-3.8398 -25.3594,-0.6094 -50.7578,-0.5821 -76.1289,0.2382 -25.3789,0.711 -50.7578,2.0196 -76.0508,4.3907 -0.1484,0.019 -0.2891,-0.09 -0.3008,-0.2383 -0.019,-0.1524 0.094,-0.2813 0.2305,-0.3008 50.5,-6.08197 101.4102,-8.60937 152.3125,-8.44917 z m 23.8906,-24.9727 c 15.5664,0.1289 31.1602,0.062 46.6992,1.3008 15.5196,1.3789 31.0899,2.8281 46.3672,6.2305 0.1407,0.031 0.2422,0.1797 0.211,0.3281 -0.027,0.1328 -0.1485,0.2227 -0.2774,0.2109 l -46.6015,-1.3281 c -15.5,-0.5195 -30.9883,-1.6719 -46.5118,-2.3828 -15.5195,-0.6992 -31.0586,-1.2188 -46.5898,-1.6289 -15.5391,-0.4883 -31.0898,-0.8906 -46.6289,-1.1289 -0.1484,0 -0.2695,-0.1211 -0.2695,-0.2695 0,-0.1524 0.1211,-0.2696 0.2617,-0.2696 31.0976,-1 62.207,-1.4023 93.3398,-1.0625 z m -37.5625,-90.2695 c 3.8203,2.9414 7.9414,5.5312 11.3516,8.9609 3.4297,3.4102 6.7187,6.9805 9.4101,11.25 0.09,0.1407 0.051,0.3086 -0.09,0.3985 -0.082,0.051 -0.1797,0.051 -0.2617,0.02 -4.6406,-1.9883 -8.6875,-4.668 -12.5899,-7.5195 -3.9297,-2.8282 -7.1406,-6.4883 -10.6484,-9.8008 -7.0195,-6.6172 -13.9414,-13.3594 -20.7695,-20.2188 -0.1016,-0.098 -0.1016,-0.2812 0.01,-0.3789 0.09,-0.1015 0.2422,-0.1093 0.3515,-0.031 7.8399,5.6601 15.5899,11.4297 23.2383,17.3203 z m 39.75,-18.6016 c 6.0196,5.2617 11.9102,10.6836 17.2422,16.8008 0.098,0.1211 0.09,0.293 -0.031,0.4024 -0.082,0.07 -0.211,0.078 -0.3086,0.027 -7.1797,-3.7891 -13.8008,-8.2969 -20.293,-12.957 -6.4688,-4.6797 -12.3477,-10.1211 -18.418,-15.3125 -12.2109,-10.3008 -24.332,-20.7188 -36.3515,-31.2579 -0.1094,-0.1015 -0.1289,-0.2812 -0.027,-0.3906 0.098,-0.1015 0.25,-0.1211 0.3672,-0.039 13,9.3086 25.9024,18.7265 38.7109,28.2695 6.4415,4.7305 13.0704,9.2187 19.1094,14.457 z m 39.1289,82.1719 c 8.75,1.1289 17.5117,2.7305 25.8828,5.7617 0.1407,0.047 0.2188,0.2071 0.1602,0.3594 -0.043,0.1094 -0.1523,0.1797 -0.2617,0.1797 -8.8711,-0.09 -17.5313,-0.5 -26.2305,-0.8711 -8.6875,-0.3516 -17.3476,-1.3399 -26.0703,-1.8789 -17.4375,-0.8789 -34.9492,-1.2695 -52.4688,-1.1289 -0.1484,0 -0.2695,-0.1211 -0.2812,-0.2735 0,-0.1367 0.1133,-0.2578 0.25,-0.2695 17.4727,-1.7187 35.0195,-2.5976 52.6133,-2.6875 8.789,-0.051 17.6289,-0.2617 26.4062,0.8086 z m -35.1797,-156.83984 c -0.098,-0.1211 -0.09,-0.28907 0.031,-0.39063 0.1016,-0.0781 0.2305,-0.0781 0.332,-0.008 4.8399,3.28906 9.5781,6.69922 14.2188,10.22656 2.3086,1.76172 4.9492,3.18359 6.8398,5.42191 1.9102,2.2109 3.668,4.5898 4.8281,7.6406 0.062,0.1601 -0.02,0.3398 -0.1796,0.3984 -0.059,0.019 -0.129,0.019 -0.1875,0.012 -3.1602,-0.832 -5.711,-2.3398 -8.1094,-4.0117 -2.4219,-1.6406 -4.1133,-4.1094 -6.1016,-6.21872 -3.9922,-4.25 -7.8789,-8.60156 -11.6719,-13.07031 z m 6.793,45.28124 c 2.457,2.5391 4.7774,5.25 6.5078,8.668 0.07,0.1406 0.012,0.3203 -0.1289,0.3906 -0.07,0.039 -0.1484,0.039 -0.2187,0.02 -3.6602,-1.1093 -6.7422,-2.9297 -9.6719,-4.9101 -2.9492,-1.961 -5.1914,-4.7696 -7.7383,-7.2188 -5.082,-4.9023 -10.0625,-9.9101 -14.9531,-15.039 -0.098,-0.1133 -0.098,-0.293 0.012,-0.3907 0.1016,-0.09 0.2383,-0.1015 0.3398,-0.031 5.8985,3.9219 11.6993,7.9687 17.4102,12.1289 2.8516,2.082 6,3.8008 8.4414,6.3828 z m 260.0977,211.80857 c 0.1406,0.059 0.1992,0.2188 0.1406,0.3594 -0.051,0.1289 -0.2109,0.1914 -0.3399,0.1523 -11.0195,-3.7226 -21.9414,-7.9804 -32.539,-12.9609 -9.9102,-4.6524 -19.5391,-9.9414 -28.6602,-16.0508 -9.8008,-5.8008 -18.3789,-13.3086 -27.3515,-20.24997 -8.2696,-7.7695 -16.8789,-15.1719 -24.418,-23.6484 -15.582,-16.4102 -29.6719,-34.25 -41.7813,-53.3125 -12.0703,-19.0899 -22.5585,-39.1875 -30.4804,-60.3086 -0.051,-0.1407 0.019,-0.3008 0.1601,-0.3516 0.1407,-0.051 0.3008,0.031 0.3516,0.1719 8.5586,20.7695 19.6602,40.4492 32.2383,58.9883 12.4804,18.6328 26.8594,35.9492 42.6406,51.7812 7.6797,8.1289 16.4102,15.1602 24.75,22.5508 l 13.3008,10.14837 c 2.2305,1.6797 4.3281,3.5313 6.6484,5.0703 l 6.961,4.6211 c 12.7695,9.4102 26.6406,16.9883 40.789,24.211 5.8399,2.9687 11.711,5.8867 17.5899,8.8281 z m 93.4023,-353.35935 c -0.019,0.42969 -0.09,0.83985 -0.1211,1.26954 -42.039,7.16796 -84.3008,13.10937 -126.8984,14.17968 -22.6133,1.58203 -45.2735,0.85157 -67.9024,0.71094 -11.3086,-0.15234 -22.5976,-1.23047 -33.8984,-1.80078 l -16.9297,-1.03125 -16.8711,-1.79688 c -45.0508,-4.38281 -89.4922,-13.02343 -133.5898,-22.71093 -41.8203,-8.94922 -83.0586,-20.58203 -123.6719,-34.58203 -1.5703,-12.07813 -6.8789,-23.19922 -15.1602,-31.6875 17.9727,0.8789 36.0235,-0.38282 53.8516,-2.83204 23.0508,-3.10937 45.3594,-10.25781 67.0586,-18.41796 21.6602,-8.3711 42.5625,-18.85157 61.6016,-32.1211 8.8281,-6.21094 17.0898,-13.17969 24.9179,-20.55078 117.2305,17.42188 212.8633,43.78125 268.9024,76.01953 40.3086,23.19141 60.0586,48.53906 58.7109,75.35156 z m -632.1719,-414.8789 c 0.1914,-0.15235 0.4493,-0.15235 0.6407,-0.0234 4.4687,2.91016 8.7382,6.05078 13.1211,9.07031 4.3085,3.08985 8.5703,6.25 12.75,9.47266 4.1992,3.21875 9.0468,5.71875 12.3906,9.86719 3.3867,4.10156 6.4765,8.52343 8.3281,14.29297 0.1094,0.32812 -0.07,0.6875 -0.3984,0.78906 -0.1133,0.0391 -0.2305,0.0391 -0.3321,0.0195 -5.9101,-1.35156 -10.5781,-4.05078 -14.9609,-7.07031 -4.4297,-2.96094 -7.3398,-7.57813 -10.9102,-11.48047 -3.5781,-3.89063 -7.0976,-7.84766 -10.5468,-11.87891 -3.3907,-4.10156 -6.8828,-8.08203 -10.1719,-12.28125 -0.1914,-0.23828 -0.1484,-0.58984 0.09,-0.77734 z m 42.0821,135.91797 c 22.9882,0.64062 45.9765,1.53125 68.957,3 22.9609,1.58203 46.082,2.41015 68.8516,6.5 22.7304,3.98047 45.4492,9.01953 67.0703,17.5 0.2812,0.10937 0.4179,0.42968 0.3086,0.71093 -0.09,0.23829 -0.3399,0.3711 -0.5782,0.34766 l -68.3125,-7.76953 c -22.6875,-2.46875 -45.3086,-6.09766 -68.0781,-8.60938 -22.7695,-2.55078 -45.6211,-4.51953 -68.5,-6.23828 -22.8594,-1.85937 -45.7812,-3.46093 -68.7109,-4.55078 -0.3008,-0.0117 -0.5391,-0.26172 -0.5196,-0.55859 0.012,-0.29297 0.25,-0.52344 0.5313,-0.52344 22.9883,-0.36719 45.9805,-0.21875 68.9805,0.19141 z M 550.98114,571.16807 c 0.44922,-0.14062 0.87891,-0.28906 1.33204,-0.4414 12.44531,12.32031 26.38281,22.98047 40.86328,32.78125 l 12.01953,7.83984 12.43359,7.16016 c 8.19922,4.98047 16.86719,9.03125 25.46094,13.26953 34.64844,16.41015 71.44141,27.99219 108.92187,36.16015 l 28.3086,5.28125 c 4.70703,1.00782 9.47656,1.51954 14.24609,2.03907 l 14.3086,1.62109 c 9.5625,0.85938 19.08593,2.46094 28.69921,2.39844 l 28.79297,0.49219 c 9.59766,0.30859 19.16407,-0.67969 28.72657,-1.30079 9.55859,-0.76953 19.11718,-1.40234 28.63671,-2.33203 17.53125,-2.42968 34.96094,-5.5 52.26563,-8.82812 0.25,8.41015 0.5,18.05859 0.73828,28.75 -22.28516,10.76953 -44.94531,19.69922 -68.21094,27.21094 -12.93359,3.89843 -25.78515,7.96875 -38.90234,11.36718 l -9.76172,2.80078 -9.89453,2.33985 c -6.62109,1.47265 -13.1875,3.21094 -19.86328,4.46094 -26.625,5.41796 -53.63672,9.07031 -80.75391,11.75 -3.9414,0.39843 -7.89453,0.73046 -11.84375,1.08984 -1.1289,-5.69922 -2.33594,-11.44141 -3.71875,-17.28125 0,0 -13.35937,6.05078 -32.95312,18.97266 -61.39453,-4.39063 -107.72657,-14.76172 -142.66797,-28.08204 8.03906,-43.03125 10.80469,-99.46875 -7.1836,-159.51953 z m 426.72657,192.35157 c -41.66407,-2.32032 -83.06641,-3.76954 -123.7461,-3.76954 -16.23437,0 -32.37109,0.22657 -48.35547,0.72657 -17.33593,0.54297 -33.80468,0.6914 -49.48828,0.51172 25.24219,-1.62891 50.47657,-4.10938 75.53516,-8.17188 27.07812,-4.59766 54.38672,-9.57812 80.39453,-19.25 22.84766,-8.69922 45.12891,-19.59766 64.76172,-34.09766 0.39453,18.57813 0.73047,40.17969 0.89844,64.05079 z M 1225.989,1190.6563 c -2.6797,54.1211 -7.5195,121.4532 -16.1992,184.4532 -4.8594,-21.1797 -10.6289,-43.3516 -17.5117,-66.5118 -9.9571,-33.5 -17.9375,-72.8593 -24.3282,-115.4609 12.6602,-0.5078 25.5078,-1.0703 38.5703,-1.6367 6.4688,-0.2813 12.9688,-0.5625 19.4688,-0.8438 z m -20.1914,-15.4883 c -28.4375,1.25 -56.5,2.4688 -83.3594,3.1602 7.9609,-2.1992 15.9805,-4.0195 23.8711,-6.4609 16.1797,-4.4493 32.1094,-9.9297 47.6211,-16.3789 11.8008,-5.1993 23.5508,-10.8086 34.2305,-18.0899 -0.3516,11.0508 -0.8125,23.418 -1.4024,36.8711 -7,0.2969 -14,0.5977 -20.9609,0.8984 z m 118.6015,-101.4492 c 6.3321,0.059 12.6602,-0.1289 18.9883,-0.5117 13.461,-1.0273 26.9102,-2.8984 40.1407,-5.957 13.1718,-3.1016 26.6718,-6.0313 38.8515,-12.3008 10.9297,-5.2109 21.1289,-11.9297 30.2695,-19.9023 75.0821,10.3203 140.8086,26.4414 183.0821,47.832 -10.2031,4.1875 -20.4805,7.8594 -30.8633,11.1094 -12.5391,3.6992 -25.2383,6.6992 -38.0391,9.1093 -25.6289,4.5586 -51.6093,8.25 -77.9179,8.9493 -26.2813,0.7421 -52.6797,-0.5469 -78.9414,-3.3907 -23.4414,-2.4375 -46.8399,-6.0195 -69.9297,-11.0664 -1.9492,-9.5898 -7.5313,-18.1914 -15.6407,-23.8711 z m 121.2618,-164.57027 c 12.4179,17.8711 26.2695,34.6992 41.6679,50.0195 7.6407,7.6485 15.5196,15.3399 23.8321,22.1094 8.3789,6.7813 17.2382,13.0821 26.3867,18.96097 18.0703,12.1406 37.0117,23.0586 55.7812,34.289 9.3789,5.6406 18.8008,11.2227 28.0586,17.0899 8.2617,5.5117 16.7735,10.8515 23.961,17.832 0.7304,0.707 1.5195,1.3477 2.2226,2.0977 0.098,0.1093 0.09,0.2812 -0.023,0.3828 -0.098,0.098 -0.2578,0.098 -0.3672,0 l -0.031,-0.031 c -1.5117,-1.4297 -3.1406,-2.7187 -4.7812,-4 -6.8867,-5.4219 -14.668,-9.7187 -22.2578,-14.1484 -9.461,-5.4531 -19.0703,-10.6719 -28.6602,-15.9219 -19.1797,-10.5391 -38.3008,-21.2383 -56.8711,-33.0312 -9.2382,-5.94927 -18.2382,-12.34767 -26.8593,-19.32817 -8.6407,-7.0625 -16.4297,-14.6992 -24.2305,-22.5195 -15.3789,-15.793 -29.168,-33.0898 -41.4297,-51.3398 -12.3789,-18.1797 -23.1914,-37.3204 -33.3281,-56.7618 -5.0821,-9.7109 -9.9219,-19.539 -14.5938,-29.4492 -2.3398,-4.9492 -4.6289,-9.9414 -7.2187,-14.6797 -2.6094,-4.75 -4.7891,-9.76169 -8.0196,-14.1406 -0.3984,-0.62891 -0.8515,-1.23828 -1.2617,-1.87109 -0.9492,-1.44922 -1.9062,-2.89844 -2.9062,-4.32032 -11.0938,-15.6289 -25.3906,-29.10937 -42.3438,-38.25 -19.1289,-10.17968 -41.1484,-15.5 -62.9062,-14.05859 l -0.031,0.0117 c -0.1523,0 -0.2812,-0.11328 -0.289,-0.26172 -0.012,-0.14844 0.098,-0.26953 0.25,-0.28906 21.9179,-1.8125 44.1484,3.14843 63.7382,13.16015 18.3204,9.48047 33.7618,24 45.5821,40.87891 0.8164,1.17187 1.6679,2.32031 2.457,3.51953 0.1016,0.14063 0.1797,0.28125 0.2813,0.42188 3.1796,4.32031 5.4296,9.19921 8.0507,13.85941 2.7188,4.8281 5.0391,9.75 7.4375,14.6601 4.7813,9.8204 9.7305,19.5586 14.9024,29.1602 10.3398,19.2187 21.3203,38.1094 33.8008,55.9492 z m -907.18366,82.2305 c -30.65625,-4.3711 -60.48828,-13.5508 -89.08594,-25.6524 -28.48047,-12.4101 -55.48047,-28.4492 -80.05859,-47.7968 -12.21094,-9.7735 -23.79297,-20.3633 -34.75391,-31.6211 -10.66797,-11.5196 -20.53906,-23.8399 -28.96094,-37.1211 -16.66797,-26.6289 -28.83984,-56.00784 -35.04687,-86.42971 -0.0703,-0.32813 0.14062,-0.64844 0.47265,-0.71094 0.28516,-0.0586 0.56641,0.0898 0.67969,0.35156 12.55078,28.28125 26.6211,55.28909 43.98438,80.07029 4.46484,6.0977 8.72656,12.3282 13.49609,18.1875 4.46094,6.1016 9.42188,11.8008 14.26563,17.6016 9.90625,11.4219 20.60156,22.1992 32.04296,32.1992 23.10938,19.7109 48.875,36.4492 76.41016,49.7695 27.46484,13.3633 56.57031,24.0313 86.71484,29.9532 h 0.0391 c 0.32812,0.07 0.54297,0.3867 0.48047,0.7187 -0.0625,0.3086 -0.36329,0.5195 -0.67969,0.4805 z M 306.39911,780.78917 c 0.25391,-0.0703 0.51172,0.0391 0.64844,0.25 l 0.0234,0.0273 c 10.55469,15.58984 20.38281,30.64066 31.97265,44.66016 11.67188,13.7813 22.53125,28.4219 35.73438,41.1407 13.07031,12.7812 27.08203,24.7109 41.875,35.6601 14.70312,11.0703 30.16797,21.2696 46.28516,30.3008 0.30078,0.1484 0.42187,0.5195 0.26953,0.8203 -0.14063,0.2813 -0.4961,0.3906 -0.78125,0.2813 -17.11328,-7.3711 -33.3711,-16.543 -49.21094,-26.4102 -15.69922,-10.1133 -30.75,-21.293 -45.01563,-33.5195 -14.22656,-12.2305 -28.05078,-25.4219 -38.8789,-41.043 l -7.59766,-12.0273 c -2.44922,-4.0508 -4.39844,-8.4297 -6.44531,-12.6914 l -2.98047,-6.42977 c -0.94922,-2.16016 -1.58594,-4.48047 -2.37109,-6.71094 -1.42578,-4.53125 -2.84766,-9.01953 -3.97657,-13.57031 -0.082,-0.32813 0.11719,-0.66016 0.44922,-0.73828 z M 1636.1101,1047.5977 c -54.2422,-27.9492 -86.8125,-44.4804 -152.9727,-125.49997 -33.207,-40.6679 -51.0273,-78.3086 -68.0664,-110.0898 9.9688,0.2422 19.75,0.3594 29.3086,0.3594 90.6094,0 162.1797,-11.21098 202.1406,-45.96098 21.2305,-18.46875 32.7774,-43.14843 34.3008,-73.36718 0.5899,-11.83985 -1.9101,-23.28907 -7.3515,-34.33203 C 1651.7898,562.23839 1535.5593,468.83995 1422.6999,375.4376 1305.6296,278.54698 1343.7702,24.629006 1111.3601,33.398536 878.94989,42.168066 905.25849,182.48839 756.16474,349.12901 657.87177,458.98839 604.75068,490.90635 532.96161,524.76964 511.2038,479.70714 476.07099,434.04698 421.36005,391.70714 c 0,0 -119.59375,237.91015 109.54688,417.47269 2.11718,10.2187 3.96484,20.4687 5.49609,30.7773 3.44922,22.1211 5.61328,44.4219 7.42969,66.6797 0.37109,6.4609 0.84765,12.8906 1.30078,19.3203 -35.50391,-79.6601 -117.69922,-189.61718 -302.625,-201.02734 0,0 33.14844,251.23824 304.42969,281.79681 -2.03907,21.7813 -2.08204,45.0625 0.32031,69.8711 l -0.28516,14.3203 -0.66797,16.7618 -1.26172,33.6367 c -0.26953,6.7734 -0.38671,13.5312 -0.44531,20.293 -39.51953,-77.793 -125.42578,-179.44147 -305.5039,-184.91017 0,0 40.65234,248.30857 310.125,271.93747 2.4414,21.6914 5.79687,43.293 10.13671,64.7109 8.34766,40.9493 20.10938,81.3516 36.03125,120.2305 -66.9414,-55.5781 -182.4375,-111.5898 -345.84765,-51.2383 0,0 130.69922,214.8789 389.26562,135.9492 l 2.70313,4.1094 c 3.26172,4.8281 6.28515,9.8008 9.74219,14.5 l 10.45312,14.0078 c 3.44141,4.7032 7.37109,9.0508 11.03125,13.5821 15.03516,17.7812 31.17969,34.7695 49.375,49.3789 l 6.72266,5.5703 c 2.26953,1.8203 4.6875,3.4609 7.02343,5.1992 4.73438,3.3906 9.34766,6.9219 14.16407,10.1719 9.85547,6.1914 19.48047,12.6484 29.88672,17.8203 10.08984,5.6875 20.89843,9.9375 31.39062,14.6406 5.375,2.0703 10.83594,3.918 16.23047,5.8789 2.31641,0.8086 4.61328,1.6485 6.93359,2.4414 2.92188,2.2774 6.07032,4.3399 9.48828,6.0391 2.48047,1.2383 5.08594,2.5 7.76954,3.7578 -85.74219,6.1914 -200.28125,45.1133 -278.07813,190.0195 0,0 241.89844,74.8008 383.04688,-158.5273 17.47265,2.5898 36.16019,4.1484 56.01952,4.1484 40.8829,0 86.5625,-6.5 135.9297,-23.5703 0.1602,4.3203 0.3828,8.3399 0.6524,11.8594 1.0078,13.2305 8.6601,24.8398 20.4687,31.0625 46.5391,24.4492 89.3008,32.6797 125.7617,32.6797 41.711,0 75.1993,-10.7696 96.668,-20.3203 16.7305,-7.4297 25.9219,-25.8516 21.8516,-43.7891 -3.5899,-15.8828 -9.9922,-33.6016 -18.0899,-56.0195 -12.8515,-35.5821 -30.4609,-84.3321 -46.8515,-154.9805 -19.4883,-84.082 -17.5899,-219.1719 -13.25,-310.5703 35.3125,-0.332 70.2226,0.3086 103.9023,2.8789 190.9297,14.5703 229.3789,-51.5508 237.0703,-80.6484 2.0078,-7.6329 0.2266,-15.7032 -4.4414,-21.8125 -4.6406,-21.4571 -26.0898,-34.9493 -36.2695,-40.1993"
     id="path1" />
  <path
     fill-rule="nonzero"
     fill="#1d1d1b"
     fill-opacity="1"
     d="m 1310.2702,1425.4376 c -4.7304,-49.918 -6.2109,-100.211 -6.1718,-150.461 -0.039,-50.2695 1.3906,-100.5898 4.7226,-150.789 l -1.0898,-0.098 c -4.7813,50.1367 -7.6602,100.4375 -9.0703,150.8164 -1.1407,50.3828 -0.7422,100.8633 2.9297,151.2735 1.1601,12.5781 2.0273,25.1992 3.4296,37.7695 l 2.3985,18.8477 c 0.7617,6.2929 1.5625,12.582 2.8008,18.8203 3.9492,24.9804 10.8281,50.039 18.5703,73.7695 15.6679,47.832 31.1406,95.7227 48.8476,142.9531 l 1.043,-0.3125 c -11.7305,-49.0273 -25.6992,-97.3984 -39.4805,-145.8203 l -5.4218,-18.0898 c -1.7696,-6.0196 -3.1407,-12.0196 -4.7305,-18.0274 -3.5195,-11.8828 -5.7383,-24.1719 -8.2188,-36.3828 -1.3906,-6.0781 -2.3398,-12.25 -3.2578,-18.4297 l -2.8828,-18.5273 c -1.7305,-12.3906 -2.9297,-24.8711 -4.418,-37.3125"
     id="path2" />
  <path
     fill-rule="nonzero"
     fill="#1d1d1b"
     fill-opacity="1"
     d="m 1312.5007,1590.2266 c -5.5625,-21.3593 -10.4023,-42.9375 -14.5,-64.6796 -4.2422,-21.7188 -7.9219,-43.5977 -10.543,-65.5977 l -1.0781,0.078 c 1.1797,22.1992 3.418,44.3203 6.2383,66.3906 3.0508,22.0391 6.8516,43.9883 11.4023,65.8321 4.7774,21.7695 9.5782,43.707 17.5,64.6992 8.1602,20.8594 17.9493,41.2578 30.918,59.5508 l 0.9609,-0.5117 c -7.621,-21.0313 -14.9179,-41.6485 -21.5781,-62.6094 -6.2617,-21.0508 -13.6719,-41.7891 -19.3203,-63.1524"
     id="path3" />
  <path
     fill-rule="nonzero"
     fill="#1d1d1b"
     fill-opacity="1"
     d="m 1294.5788,1633.8399 c -5.1914,-17.082 -9.9297,-34.332 -14.2382,-51.7109 -4.4727,-17.3399 -8.6329,-34.7891 -12.3008,-52.3399 l -1.0703,0.168 c 2.2382,17.832 4.9804,35.5899 8.039,53.3203 3.2696,17.6914 6.9805,35.3125 11.1602,52.8516 4.2187,17.5195 8.3594,35.25 15.5,52.0273 1.9023,4.1524 3.6289,8.3516 5.6601,12.4414 2.211,4.0313 4.3086,8.0899 6.6094,12.0313 2.4492,3.8984 5.1797,7.6484 7.8125,11.3711 2.9805,3.5273 6.1875,6.8984 9.3984,10.0664 l 0.8399,-0.6992 c -8.6602,-15.7774 -14.4805,-32.3008 -20.1484,-49.0977 -5.4415,-16.8125 -12.1719,-33.3125 -17.2618,-50.4297"
     id="path4" />
  <path
     fill-rule="nonzero"
     fill="#1d1d1b"
     fill-opacity="1"
     d="m 1257.2507,1124.1368 c -0.8633,29.3203 -2.4101,58.6328 -4.3203,87.8828 -1.7422,29.2578 -3.9805,58.4883 -6.9219,87.6172 -2.8398,29.1523 -7.1289,58.1016 -10.6289,87.0625 -3.582,28.9805 -7.3984,57.8398 -13.039,86.7187 l 1.039,0.3204 c 2.7305,-6.8399 5.1094,-13.8321 7.6992,-20.7891 2.1914,-7.0625 4.1211,-14.1914 6.0586,-21.332 3.5821,-14.3282 6.7032,-28.8008 9.0235,-43.3594 1.0586,-7.2891 2.3476,-14.5703 3.1875,-21.8789 l 2.3203,-21.9805 c 1.0195,-14.6992 2.25,-29.3711 3.0312,-44.0508 3.7696,-58.7109 4.7305,-117.4882 3.6407,-176.2109 h -1.0899"
     id="path5" />
  <path
     fill-rule="nonzero"
     fill="#1d1d1b"
     fill-opacity="1"
     d="m 1179.8484,1636.6876 c -1.7578,11.1914 -4.2188,22.4101 -4.0703,33.8203 -0.02,11.3711 0.9218,22.8086 3.8203,34.0898 h 1.0898 c 3.1094,-11.25 4.4922,-22.3398 5.9727,-33.4414 1.4297,-11.0664 1.0468,-22.2968 1.8476,-33.4687 0.711,-11.1797 1.7891,-22.3399 3.1211,-33.4883 1.168,-11.1719 2.75,-22.3125 4.5703,-33.4219 l -1.0508,-0.2695 c -6.8984,21.582 -11.6406,43.7812 -15.3007,66.1797"
     id="path6" />
  <path
     fill-rule="nonzero"
     fill="#1d1d1b"
     fill-opacity="1"
     d="m 980.49286,1260.6173 c 3.55078,-18.1602 6.52731,-36.4102 7.99611,-54.8594 l -1.0703,-0.168 c -2.38674,8.8867 -4.77737,17.7578 -7.44534,26.5469 -2.5,8.832 -5.11719,17.6133 -7.92578,26.332 -2.73437,8.7383 -6.47266,17.1602 -8.29297,26.1289 -1.83203,8.9805 -3.49609,18 -3.5,27.6797 l 1.03516,0.3399 c 5.71094,-7.7891 9.64844,-16.2774 12.91797,-24.961 3.39453,-8.6562 4.4414,-17.9765 6.28515,-27.039"
     id="path7" />
  <path
     fill-rule="nonzero"
     fill="#1d1d1b"
     fill-opacity="1"
     d="m 1001.0007,1251.6095 c -2.75003,14.6406 -5.81253,29.1992 -9.19143,43.6601 -3.3984,14.4688 -8.04297,28.5703 -11.01953,43.0469 -3.17578,14.4609 -6.39063,28.832 -8.875,43.8203 l 1.01562,0.3906 c 8.125,-12.8984 13.73051,-27.0703 18.39061,-41.3984 4.5977,-14.3789 6.5391,-29.3906 9.02743,-44.1719 4.7304,-29.6289 8.1211,-59.3984 9.5,-89.2891 l -1.0782,-0.1015 c -2.3515,14.7305 -4.8593,29.4336 -7.7695,44.043"
     id="path8" />
</svg>
